<svg xmlns="http://www.w3.org/2000/svg" xmlns:xlink="http://www.w3.org/1999/xlink" width="16" height="16" viewBox="0 0 16 16" id="search">
    <path d="M10.222 4.033c-1.71-1.71-4.48-1.71-6.19 0-1.709 1.71-1.709 4.48 0 6.19 1.71 1.709 4.48 1.709 6.19 0 1.71-1.71 1.71-4.48 0-6.19m4.552 10.741c-.342.341-.896.341-1.239 0l-2.756-2.757c-2.4 1.794-5.804 1.624-7.984-.557-2.393-2.392-2.393-6.272 0-8.665 2.392-2.393 6.273-2.393 8.665 0 2.181 2.18 2.351 5.584.557 7.984l2.757 2.757c.341.342.341.896 0 1.238"/>
</svg>
